Coordinates
version=1
nRows=17
nColumns=40
inDegrees=yes

Units are S.I. units (second, meters, Newtons, ...)
If the header above contains a line with 'inDegrees', this indicates whether rotational values are in degrees (yes) or radians (no).

endheader
time	pelvis_tilt	pelvis_list	pelvis_rotation	pelvis_tx	pelvis_ty	pelvis_tz	hip_flexion_r	hip_adduction_r	hip_rotation_r	knee_angle_r	knee_angle_r_beta	ankle_angle_r	subtalar_angle_r	mtp_angle_r	hip_flexion_l	hip_adduction_l	hip_rotation_l	knee_angle_l	knee_angle_l_beta	ankle_angle_l	subtalar_angle_l	mtp_angle_l	lumbar_extension	lumbar_bending	lumbar_rotation	arm_flex_r	arm_add_r	arm_rot_r	elbow_flex_r	pro_sup_r	wrist_flex_r	wrist_dev_r	arm_flex_l	arm_add_l	arm_rot_l	elbow_flex_l	pro_sup_l	wrist_flex_l	wrist_dev_l
      0.26000000	     -9.08788331	      2.68538811	     -2.65339115	      1.23529334	      0.99906353	     -0.48183684	     31.71453991	     -3.02113559	      2.12317161	      0.77221771	      0.01347774	      6.26970214	      0.00000000	      0.00000000	     -6.53117296	      4.04649972	     -2.12774770	     10.86566605	      0.18964165	     10.66791251	      0.00000000	      0.00000000	     -3.23549454	     -0.98698425	     -3.39520490	    -13.94809268	     -7.82326089	     -6.42715187	     45.30803369	     73.76622293	      0.00000000	      0.00000000	      2.43790171	    -12.14561834	     11.78766734	     51.56198289	     64.71536848	      0.00000000	      0.00000000
      0.27000000	     -8.92479041	      2.48746991	     -2.42567429	      1.23699546	      0.99769473	     -0.48121240	     31.29184345	     -2.92612698	      2.51713518	      1.31098942	      0.02288108	      6.21615932	      0.00000000	      0.00000000	     -7.17396578	      3.70128311	     -1.74807247	     11.61945946	      0.20279782	     10.28950090	      0.00000000	      0.00000000	     -3.25855506	     -0.64467341	     -3.39639128	    -14.11036004	     -7.94687085	     -6.40378031	     45.01194298	     73.78465598	      0.00000000	      0.00000000	      2.28982942	    -11.76580168	     11.68164762	     51.40654977	     64.68431070	      0.00000000	      0.00000000
      0.28000000	     -8.49757955	      2.19908581	     -2.12833247	      1.23875076	      0.99673029	     -0.48050138	     30.69065769	     -2.74657866	      2.34374858	      2.31150174	      0.04034332	      6.16120953	      0.00000000	      0.00000000	     -7.81129607	      3.20034247	     -1.81602782	     12.97396484	      0.22643840	     10.08887451	      0.00000000	      0.00000000	     -3.56959553	     -0.24674532	     -3.50812782	    -14.11618724	     -8.05594939	     -6.35538779	     44.54560222	     73.82151986	      0.00000000	      0.00000000	      2.20283081	    -11.34071640	     11.36890426	     51.10115915	     64.64335314	      0.00000000	      0.00000000
      0.29000000	     -8.41184297	      1.85355033	     -1.81870709	      1.24048459	      0.99519081	     -0.47949924	     30.62478476	     -2.45625302	      2.14487026	      3.82802739	      0.06681168	      6.00481720	      0.00000000	      0.00000000	     -7.88062997	      2.56763754	     -1.93318230	     14.72636743	      0.25702360	     10.11244944	      0.00000000	      0.00000000	     -3.47409566	      0.20896466	     -3.68857120	    -14.18169779	     -8.16195668	     -6.19833141	     44.17889627	     73.95137622	      0.00000000	      0.00000000	      1.81183916	    -11.01447637	     10.87371200	     51.18784217	     64.70149723	      0.00000000	      0.00000000
      0.30000000	     -8.20160238	      1.68076139	     -1.59644512	      1.24231545	      0.99395954	     -0.47857497	     30.45945370	     -2.30802225	      2.03034256	      5.34334646	      0.09325899	      5.36653436	      0.00000000	      0.00000000	     -8.11452632	      2.15742076	     -1.99444456	     16.32951807	      0.28500386	      9.59506240	      0.00000000	      0.00000000	     -3.51843682	      0.49518265	     -3.74373628	    -14.24953794	     -8.23627440	     -6.16006161	     43.92234795	     74.02379356	      0.00000000	      0.00000000	      1.43928292	    -10.67925836	     10.56264745	     51.21574392	     64.78261127	      0.00000000	      0.00000000
      0.31000000	     -8.32023975	      1.45385976	     -1.33346591	      1.24408925	      0.99241853	     -0.47781284	     30.72930250	     -2.12688785	      1.81524795	      6.90209921	      0.12046436	      4.54172785	      0.00000000	      0.00000000	     -7.76280232	      1.66128140	     -2.03827445	     18.35826989	      0.32041225	      9.13699384	      0.00000000	      0.00000000	     -3.17550584	      0.86295590	     -3.87257228	    -14.38687223	     -8.41341248	     -5.98518981	     43.75087043	     74.13799078	      0.00000000	      0.00000000	      0.90090468	    -10.32333137	     10.01740838	     51.29580590	     64.98437333	      0.00000000	      0.00000000
      0.32000000	     -8.19337511	      1.18202437	     -1.11710043	      1.24611490	      0.99153600	     -0.47711339	     30.63158023	     -1.91901598	      1.42582066	      8.20623602	      0.14322584	      3.54563513	      0.00000000	      0.00000000	     -7.65739339	      1.11766761	     -2.24186050	     20.34095707	      0.35501667	      8.17726978	      0.00000000	      0.00000000	     -3.09929710	      1.28496589	     -3.89941294	    -14.51713569	     -8.57803358	     -5.92491330	     43.60386553	     74.17012974	      0.00000000	      0.00000000	      0.46041314	     -9.94578057	      9.62832009	     51.16007069	     65.08271830	      0.00000000	      0.00000000
      0.33000000	     -8.36052193	      0.92242861	     -0.88863663	      1.24803249	      0.99041410	     -0.47648372	     30.93112800	     -1.76733641	      0.95646325	      9.75521098	      0.17026055	      2.68845259	      0.00000000	      0.00000000	     -6.95659784	      0.54960503	     -2.44259132	     22.82459868	      0.39836440	      7.23345770	      0.00000000	      0.00000000	     -2.69713329	      1.71525564	     -4.01486584	    -14.61321104	     -8.79805468	     -5.70038814	     43.46034344	     74.21942587	      0.00000000	      0.00000000	     -0.16468950	     -9.57016356	      8.99373703	     51.15349420	     65.38356526	      0.00000000	      0.00000000
      0.34000000	     -7.95706949	      0.62550910	     -0.74318957	      1.25016202	      0.99052563	     -0.47569481	     30.46032388	     -1.57427939	      0.34312729	     11.15334911	      0.19466266	      2.07016241	      0.00000000	      0.00000000	     -6.90207602	     -0.06598758	     -2.87455652	     25.08767472	      0.43786253	      5.69095273	      0.00000000	      0.00000000	     -2.96221531	      2.15533519	     -3.92382269	    -14.64502930	     -8.94856085	     -5.70916120	     43.28695599	     74.21798552	      0.00000000	      0.00000000	     -0.55616216	     -9.22527015	      8.72868066	     50.94936799	     65.47022897	      0.00000000	      0.00000000
      0.35000000	     -7.62872063	      0.30088343	     -0.58399571	      1.25199048	      0.99078799	     -0.47481442	     30.15375995	     -1.38213465	     -0.31905455	     12.81933241	      0.22373956	      1.77406440	      0.00000000	      0.00000000	     -6.50808195	     -0.74723328	     -3.27469967	     27.72707757	      0.48392880	      4.11321176	      0.00000000	      0.00000000	     -3.17639303	      2.62732372	     -3.81505167	    -14.67400868	     -9.07212965	     -5.68658880	     43.23071895	     74.22161202	      0.00000000	      0.00000000	     -0.95032175	     -8.91905921	      8.43418205	     50.80883136	     65.57069801	      0.00000000	      0.00000000
      0.36000000	     -7.66657606	     -0.03474131	     -0.41864880	      1.25330583	      0.99072742	     -0.47391926	     30.44031983	     -1.20354450	     -0.98061885	     14.91081812	      0.26024287	      1.88087547	      0.00000000	      0.00000000	     -5.41690878	     -1.45978342	     -3.56003067	     30.82063752	      0.53792160	      2.61370537	      0.00000000	      0.00000000	     -3.01609135	      3.11484143	     -3.73929751	    -14.69228155	     -9.24577168	     -5.57032461	     43.25868547	     74.21725623	      0.00000000	      0.00000000	     -1.45699249	     -8.60746347	      7.97359751	     50.77002891	     65.92839106	      0.00000000	      0.00000000
      0.37000000	     -7.42333975	     -0.44462657	     -0.32325127	      1.25457798	      0.99147474	     -0.47285078	     30.21070180	     -0.88709420	     -1.47498652	     16.58149384	      0.28940166	      2.05687458	      0.00000000	      0.00000000	     -4.55485248	     -2.28408087	     -3.99987536	     33.89333645	      0.59155032	      0.69670933	      0.00000000	      0.00000000	     -3.20823844	      3.66560833	     -3.51137442	    -14.65127603	     -9.40104919	     -5.51474438	     43.30537974	     74.19284941	      0.00000000	      0.00000000	     -1.80058070	     -8.33791701	      7.70335716	     50.58265838	     66.12049157	      0.00000000	      0.00000000
      0.38000000	     -7.13335530	     -0.87200292	     -0.32591089	      1.25573445	      0.99260994	     -0.47162499	     29.75701036	     -0.46775135	     -1.75646185	     17.92402489	      0.31283325	      2.44562421	      0.00000000	      0.00000000	     -3.62652859	     -3.17069548	     -4.58141770	     37.03237947	      0.64633695	     -1.57800978	      0.00000000	      0.00000000	     -3.47049223	      4.22860323	     -3.17981046	    -14.54884452	     -9.56923179	     -5.46261909	     43.32451362	     74.16605261	      0.00000000	      0.00000000	     -2.11728654	     -8.12483022	      7.55236041	     50.34340283	     66.21221801	      0.00000000	      0.00000000
      0.39000000	     -7.02965183	     -1.33693893	     -0.39565330	      1.25648638	      0.99365235	     -0.47027894	     29.38922980	      0.05343018	     -1.83899962	     19.03724618	      0.33226263	      2.93490103	      0.00000000	      0.00000000	     -2.31452653	     -4.11296499	     -5.04467830	     40.35132006	      0.70426339	     -3.70036297	      0.00000000	      0.00000000	     -3.57301040	      4.82564566	     -2.75301000	    -14.46175645	     -9.77498994	     -5.34298386	     43.52386147	     74.12182893	      0.00000000	      0.00000000	     -2.42566851	     -7.93226594	      7.45179439	     50.16875156	     66.33559576	      0.00000000	      0.00000000
      0.40000000	     -6.91538402	     -1.75218970	     -0.52203225	      1.25698629	      0.99488453	     -0.46898505	     28.85063891	      0.56550859	     -1.81982309	     19.84404028	      0.34634384	      3.52189122	      0.00000000	      0.00000000	     -0.91027684	     -4.97375598	     -5.42034587	     43.65245219	      0.76187902	     -5.86015244	      0.00000000	      0.00000000	     -3.72889457	      5.36347270	     -2.27140286	    -14.32819486	    -10.00474610	     -5.19428378	     43.78065685	     74.04664510	      0.00000000	      0.00000000	     -2.73188353	     -7.77595421	      7.42170530	     50.02584682	     66.51130283	      0.00000000	      0.00000000
      0.41000000	     -6.75996124	     -2.10460280	     -0.64759638	      1.25727775	      0.99633564	     -0.46782405	     28.12246947	      1.01789434	     -1.81585977	     20.37233405	      0.35556431	      4.19926078	      0.00000000	      0.00000000	      0.50505980	     -5.71277653	     -5.65048293	     46.77801080	      0.81643031	     -8.26391066	      0.00000000	      0.00000000	     -3.96068651	      5.82954494	     -1.80302084	    -14.11106030	    -10.23801185	     -5.06148723	     44.02570109	     73.97315542	      0.00000000	      0.00000000	     -3.06171097	     -7.64211782	      7.41846137	     49.91503954	     66.68209328	      0.00000000	      0.00000000
      0.42000000	     -6.82308956	     -2.47539164	     -0.67447004	      1.25731276	      0.99752913	     -0.46688400	     27.53359825	      1.45448214	     -1.86045070	     20.71102948	      0.36147566	      4.75934058	      0.00000000	      0.00000000	      2.29082601	     -6.41077748	     -5.60383436	     49.89719537	      0.87087035	    -10.67004358	      0.00000000	      0.00000000	     -3.93695035	      6.31409470	     -1.46004645	    -13.90810629	    -10.50252531	     -4.88128888	     44.39407503	     73.83335773	      0.00000000	      0.00000000	     -3.45930538	     -7.52154887	      7.34430388	     49.82359206	     66.96168994	      0.00000000	      0.00000000
